Smallville "pilot episode" S01E01 Aired: October 16, 2001

General
Complete name                    : Smallvillle Pilot S01E01  HDTV_JHW.mp4
Format                           : MPEG-4
Format profile                   : Base Media / Version 2
Codec ID                         : mp42
File size                        : 472 MiB
Duration                         : 44mn 52s
Overall bit rate                 : 1 469 Kbps
Encoded date                     : UTC 2011-04-08 03:00:25
Tagged date                      : UTC 2011-04-08 03:00:25
Writing library                  : AVS 

Video
ID                               : 1
Format                           : AVC
Format/Info                      : Advanced Video Codec
Format profile                   : Main@L5.1
Format settings, CABAC           : Yes
Format settings, ReFrames        : 2 frames
Codec ID                         : avc1
Codec ID/Info                    : Advanced Video Coding
Duration                         : 44mn 52s
Bit rate mode                    : Variable
Bit rate                         : 1 192 Kbps
Width                            : 1 280 pixels
Height                           : 720 pixels
Display aspect ratio             : 16:9
Frame rate mode                  : Constant
Frame rate                       : 23.976 fps
Color space                      : YUV
Chroma subsampling               : 4:2:0
Bit depth                        : 8 bits
Scan type                        : Progressive
Bits/(Pixel*Frame)               : 0.054
Stream size                      : 383 MiB (81%)
Language                         : English
Encoded date                     : UTC 2011-04-08 03:00:25
Tagged date                      : UTC 2011-04-08 03:00:25

Audio
ID                               : 2
Format                           : AAC
Format/Info                      : Advanced Audio Codec
Format profile                   : LC
Codec ID                         : 40
Duration                         : 44mn 52s
Bit rate mode                    : Constant
Bit rate                         : 272 Kbps
Nominal bit rate                 : 96.0 Kbps
Channel(s)                       : 6 channels
Channel positions                : Front: L C R, Side: L R, LFE
Sampling rate                    : 48.0 KHz
Compression mode                 : Lossy
Stream size                      : 87.2 MiB (18%)
Language                         : English
Encoded date                     : UTC 2011-04-08 03:00:25
Tagged date                      : UTC 2011-04-08 03:00:25
 
http://img132.imageshack.us/img132/4558/vlcsnap2011040823h06m48.png 
http://img861.imageshack.us/img861/5327/vlcsnap2011040823h08m35.png 
http://img40.imageshack.us/img40/2223/vlcsnap2011040823h09m09.png 
http://img830.imageshack.us/img830/5686/vlcsnap2011040823h09m38.png 
http://img233.imageshack.us/img233/4962/vlcsnap2011040823h09m56.png 
http://img16.imageshack.us/img16/1889/vlcsnap2011040823h10m07.png 
http://img861.imageshack.us/img861/2293/vlcsnap2011040823h10m10.png